<?xml version="1.0" encoding="UTF-8"?>
<svg xmlns="http://www.w3.org/2000/svg" xmlns:xlink="http://www.w3.org/1999/xlink" viewBox="0 0 60 60" width="60px" height="60px">
<g id="surface100559193">
<path style=" stroke:none;fill-rule:nonzero;fill:rgb(100%,100%,100%);fill-opacity:1;" d="M 48 8 L 12 8 C 9.789062 8 8 9.789062 8 12 L 8 48 C 8 50.210938 9.789062 52 12 52 L 32 52 L 32 34 L 26 34 L 26 28 L 32 28 L 32 24.777344 C 32 18.679688 34.972656 16 40.042969 16 C 42.46875 16 43.753906 16.179688 44.363281 16.261719 L 44.363281 22 L 40.902344 22 C 38.753906 22 38 23.136719 38 25.4375 L 38 28 L 44.308594 28 L 43.453125 34 L 38 34 L 38 52 L 48 52 C 50.210938 52 52 50.210938 52 48 L 52 12 C 52 9.789062 50.207031 8 48 8 Z M 48 8 "/>
</g>
</svg>
